<?xml version="1.0" encoding="utf-8"?>
<!-- Generator: Adobe Illustrator 24.2.3, SVG Export Plug-In . SVG Version: 6.00 Build 0)  -->
<svg version="1.1" id="Layer_1" xmlns="http://www.w3.org/2000/svg" xmlns:xlink="http://www.w3.org/1999/xlink" x="0px" y="0px"
	 viewBox="0 0 128 40" style="enable-background:new 0 0 128 40;" xml:space="preserve">
<style type="text/css">
	.st0{fill:#0A2450;}
	.st1{fill:#9F8D41;}
	.st2{fill:#FEFEFE;}
</style>
<g id="VQBQiI_1_">
	<g>
		<path class="st0" d="M2.6,17.7c-0.1-0.2,0-0.5,0-0.7c0-4.9,0-9.7,0-14.6c0-0.5,0-0.5,0.5-0.5c9.8,0,19.5,0,29.3,0
			c0.3,0,0.4,0.1,0.4,0.4c0,7.5,0,14.9,0,22.4c0,1.2-0.3,2.3-0.7,3.5c-0.7,2.3-1.9,4.3-3.6,6c-1.4,1.4-3.1,2.6-4.9,3.4
			c-2.3,0.9-4.7,1.3-7.2,1.1c-2.8-0.2-5.4-1.2-7.6-2.9c-2.3-1.7-4-4-5.1-6.7c-0.6-1.6-1-3.2-1-4.9c0-1.6,0-3.1,0-4.7
			c0-0.3-0.2-0.7,0-1c0.1,0,0.1,0.1,0.1,0.2c0.2,0.4,0.4,0.9,0.9,1.1c0.3,0.2,0.6,0.5,1,0.5c0.1,0,0.2,0.2,0.2,0.3
			c0.2,0.7,0.5,1.4,0.9,2.1c0,0.1,0.2,0.2,0.1,0.4c-0.1-0.1-0.2-0.1-0.3-0.2c-0.3-0.2-0.6-0.3-1-0.4c-0.2,0-0.3-0.1-0.4,0.1
			c-0.1,0.1,0,0.3,0,0.4C4.4,23.6,5.2,24,6.2,24c0.2,0,0.4,0,0.5,0.2c0.4,0.6,0.9,1.3,1.5,1.8c0.1,0.1,0.2,0.1,0.2,0.3
			c-0.1,0-0.2,0-0.3,0c-0.4-0.1-0.9-0.1-1.3-0.1c-0.1,0-0.2,0-0.3,0.1c0,0.1,0.1,0.2,0.1,0.3c0.6,0.6,1.4,0.8,2.2,0.6
			c0.5-0.1,0.8,0,1.2,0.3c0.6,0.4,1.2,0.6,1.8,0.8c0.1,0,0.3,0.1,0.4-0.1c-0.3-0.1-0.5-0.2-0.8-0.3c-0.3-0.1-0.4-0.3-0.4-0.5
			c-0.2-0.7-0.5-1.2-1-1.7c-0.1-0.1-0.1-0.2-0.2-0.1c-0.1,0.1-0.1,0.2-0.1,0.3c0.1,0.5,0.3,0.9,0.6,1.4c-0.7-0.2-1.1-0.7-1.5-1.1
			c-0.3-0.3-0.5-0.6-0.5-1c0-0.3-0.1-0.6-0.2-0.8c-0.1-0.4-0.2-0.9-0.7-1.2c-0.1-0.1-0.1-0.2-0.2-0.1c-0.1,0.1-0.1,0.1-0.1,0.3
			c0,0.5,0.2,0.9,0.3,1.4c-0.7-0.9-1.3-1.7-1.7-2.7c-0.1-0.1-0.1-0.2,0-0.3c0.2-0.4,0.3-0.9,0.4-1.4c0-0.5,0-1.1-0.2-1.6
			c0-0.1,0-0.2-0.1-0.2c-0.1,0-0.1,0.1-0.2,0.1c-0.3,0.4-0.4,0.9-0.4,1.4c0,0.2,0,0.4,0,0.5c-0.4-0.8-0.6-1.6-0.7-2.4
			c0-0.2,0-0.3,0.1-0.4c0.8-0.6,1.2-1.5,1.4-2.5c0-0.1,0-0.2-0.1-0.3c-0.1-0.1-0.2,0-0.2,0.1c-0.3,0.3-0.6,0.6-0.8,1
			c-0.1,0.2-0.2,0.4-0.4,0.5c0-0.2,0-0.4,0-0.6c0.1-0.5,0.3-1,0.4-1.6c0.1-0.6,0.4-0.9,1-1.1c0.8-0.2,1.4-0.8,1.8-1.5
			c0-0.1,0.1-0.1,0-0.2c-0.1-0.1-0.1-0.1-0.2,0C7.4,11.8,7.2,11.9,7,12c-0.4,0.2-0.7,0.4-1.2,0.6c0.4-0.8,0.9-1.5,1.4-2.1
			c0.3-0.4,0.7-0.8,1.2-1C9.1,9.2,9.6,8.6,9.8,8c0.1-0.3,0-0.4-0.3-0.4c-0.6,0-1.1,0.3-1.3,0.8C7.7,9.3,7,10,6.5,10.8
			c-0.1,0.2-0.2,0.3-0.4,0.5c0-0.2,0-0.4,0-0.6c0.1-0.7,0.2-1.4,0-2.1c0-0.2,0-0.5-0.2-0.5c-0.2,0-0.3,0.3-0.4,0.5
			c-0.5,1-0.5,2.1,0.1,3.1c0.1,0.1,0.1,0.3,0,0.4c-0.4,0.6-0.6,1.3-0.9,2c0,0.1-0.1,0.2-0.2,0.1c-0.1,0-0.1-0.1-0.1-0.2
			c0-0.4-0.1-0.7-0.1-1.1c0-0.2,0-0.5-0.3-0.5c-0.3,0-0.4,0.2-0.5,0.5c0,0,0,0,0,0.1c-0.3,0.9-0.1,1.7,0.5,2.5
			c0.1,0.2,0.2,0.3,0.2,0.5c-0.1,0.5-0.1,0.9-0.1,1.4c0,0.6,0,1.1,0.1,1.7c-0.2-0.1-0.3-0.3-0.4-0.4C3.5,18.2,3.2,17.7,2.6,17.7z
			 M23,17.3c0.2,0,0.2,0.1,0.3,0.2c0.7,1.1,1.4,2.1,2.1,3.2c0.1,0.2,0.3,0.3,0.5,0.3c0.6,0,1.1,0,1.7,0c0.3,0,0.5-0.1,0.5-0.4
			c0-1.5,0-3,0-4.5c0-0.1-0.1-0.3,0.2-0.3c0.3,0,0.3-0.1,0.3-0.3c0-0.3,0-0.6,0-0.8c0-0.2-0.1-0.2-0.2-0.2c-0.8,0-1.6,0-2.3,0
			c-0.2,0-0.3,0.1-0.3,0.2c0,0.3,0,0.6,0,0.9c0,0.1,0,0.2,0.1,0.2c0.4,0,0.3,0.3,0.3,0.5c0,0.4,0,0.8,0,1.2c0,0.1,0,0.2-0.1,0.2
			c-0.7-1-1.3-2-2-3c-0.1-0.2-0.2-0.3-0.5-0.2c-0.6,0-1.2,0-1.8,0c-1.1,0-1.1,0-1,1.1c0,0.1,0,0.3,0.2,0.3c0.2,0,0.2,0.1,0.2,0.2
			c0,1.1,0,2.2,0,3.4c0,0.1,0,0.2-0.1,0.2c-0.4,0-0.3,0.3-0.3,0.5c0,0.2,0,0.4,0,0.6c0,0.2,0.1,0.3,0.3,0.3c0.8,0,1.5,0,2.3,0
			c0.2,0,0.3-0.1,0.2-0.2c0-0.3,0-0.6,0-0.9c0-0.2,0-0.3-0.2-0.3c-0.1,0-0.2-0.1-0.2-0.2C23,18.6,23,18,23,17.3z M12,20.9
			c0.5,0,0.9,0,1.4,0c0.2,0,0.3-0.1,0.3-0.3c0-0.3,0-0.5,0-0.8c0-0.2,0-0.4-0.3-0.4c-0.1,0-0.1-0.1-0.2-0.2
			c-0.4-1.6-0.9-3.1-1.3-4.7c-0.1-0.2-0.2-0.3-0.4-0.3c-0.6,0-1.2,0-1.8,0c-0.3,0-0.6-0.1-0.9,0c-0.3,0.1-0.2,0.5-0.3,0.8
			c0,0.1,0,0.1-0.1,0.2c-0.3,1.3-0.7,2.6-1,3.8c0,0.1,0,0.4-0.2,0.4c-0.3,0-0.3,0.3-0.3,0.5c0,0.2,0,0.4,0,0.7
			c0,0.2,0.1,0.3,0.3,0.3c0.5,0,1,0,1.6,0c1.2,0,1.2,0,1-1.2c0,0,0,0,0,0c0-0.1-0.1-0.2-0.2-0.2c-0.2,0-0.3-0.1-0.3-0.3
			c0-0.2,0-0.4,0.3-0.4c0.2,0,0.5,0,0.7,0c0.3,0,0.2,0.3,0.3,0.5c0.1,0.2-0.1,0.2-0.2,0.2c-0.2,0-0.2,0.1-0.2,0.3c0,0.3,0,0.6,0,0.9
			c0,0.2,0.1,0.3,0.3,0.3C11,20.9,11.5,20.9,12,20.9z M15.5,14.3c-0.4,0-0.8,0-1.3,0c-0.3,0-0.4,0.1-0.4,0.4c0,0.2,0,0.4,0,0.6
			c0,0.2,0,0.5,0.3,0.5c0.1,0,0.1,0.1,0.1,0.2c0.5,1.6,0.9,3.1,1.4,4.7c0.1,0.3,0.2,0.3,0.4,0.3c0.7,0,1.4,0,2.2,0
			c0.2,0,0.3-0.1,0.4-0.3c0.4-1.5,0.9-3,1.3-4.5c0.1-0.2,0.1-0.5,0.4-0.5c0.1,0,0.1-0.1,0.1-0.2c0-0.3,0-0.6,0-0.9
			c0-0.2-0.1-0.3-0.2-0.3c-0.8,0-1.6,0-2.4,0c-0.2,0-0.3,0.1-0.3,0.3c0,0.3,0,0.6,0,0.9c0,0.1,0,0.3,0.2,0.3c0.3,0,0.2,0.2,0.2,0.3
			c-0.1,0.5-0.2,0.9-0.3,1.4c-0.1,0.3-0.1,0.6-0.2,0.8c0,0-0.1,0.1-0.1,0.1c-0.1,0-0.1-0.1-0.1-0.1c-0.2-0.8-0.3-1.6-0.5-2.3
			c0-0.1,0-0.2,0.1-0.2c0.3,0,0.3-0.2,0.3-0.4c0-0.3,0-0.5,0-0.8c0-0.2-0.1-0.3-0.3-0.3C16.4,14.3,16,14.3,15.5,14.3z M30.3,19.1
			c-0.1-0.1,0-0.2,0-0.3c0.2-0.9,0.1-1.8,0-2.7c0-0.2,0-0.4,0.2-0.6c0.6-0.8,0.8-1.6,0.5-2.5c-0.1-0.2-0.2-0.5-0.5-0.4
			c-0.2,0-0.2,0.3-0.2,0.5c-0.1,0.5-0.1,1-0.2,1.5c-0.1-0.2-0.1-0.3-0.2-0.4c-0.3-0.7-0.5-1.4-0.9-2c-0.1-0.1-0.1-0.3,0-0.4
			c0.5-0.7,0.5-1.5,0.4-2.3c0-0.4-0.2-0.8-0.5-1.2c-0.1-0.1-0.1-0.2-0.3-0.1c-0.1,0-0.1,0.1-0.1,0.2c-0.2,0.6-0.2,1.3-0.1,1.9
			c0,0.3,0.2,0.7,0,1.1c-0.6-1-1.4-1.8-2-2.7c-0.3-0.6-0.8-1-1.5-1c-0.2,0-0.3,0.1-0.2,0.3c0.3,0.7,0.7,1.3,1.5,1.6
			c0.5,0.2,0.9,0.5,1.2,0.9c0.2,0.2,0.4,0.5,0.5,0.7c0.3,0.5,0.6,0.9,0.9,1.4c-0.2,0-0.3-0.1-0.4-0.1c-0.4-0.3-0.8-0.5-1.3-0.6
			c-0.1,0-0.2-0.1-0.3,0c-0.1,0.1,0,0.2,0,0.3c0.6,0.7,1.2,1.3,2.2,1.5c0.2,0,0.4,0.1,0.4,0.3c0.3,0.8,0.5,1.6,0.6,2.4
			c0,0.2,0.1,0.3-0.1,0.5c-0.3-0.5-0.6-1-1.1-1.5c-0.1-0.1-0.1-0.2-0.3-0.1c-0.1,0.1-0.1,0.2-0.1,0.3c0.2,0.9,0.5,1.8,1.3,2.4
			c0.1,0.1,0.2,0.2,0.2,0.4c0,0.6-0.2,1.2-0.4,1.7c-0.1,0.2-0.1,0.5-0.3,0.8c0-0.3,0-0.4,0-0.6c0-0.5-0.2-1-0.4-1.4
			c0-0.1-0.1-0.2-0.2-0.1c-0.1,0-0.1,0.1-0.1,0.2c-0.3,1-0.3,1.9,0.1,2.8c0.1,0.3,0.1,0.5,0,0.8c-0.3,0.5-0.6,1-0.9,1.5
			c-0.2,0.3-0.4,0.5-0.6,0.8c0-0.3,0.1-0.6,0.1-0.9c0-0.2,0.1-0.5-0.1-0.6c-0.3-0.1-0.4,0.3-0.6,0.4c0,0,0,0,0,0
			c-0.3,0.6-0.5,1.3-0.4,2c0,0.1,0,0.2-0.1,0.3c-0.4,0.5-0.9,0.9-1.4,1.2c0,0-0.1,0.1-0.2,0c-0.1,0,0-0.1,0-0.2
			c0.1-0.3,0.3-0.6,0.4-1c0-0.1,0.1-0.3-0.1-0.4c-0.1-0.1-0.3,0.1-0.3,0.2c-0.4,0.5-0.9,1-1,1.7c0,0.2-0.1,0.4-0.4,0.4
			c-0.3,0.1-0.5,0.2-0.8,0.3c0,0.1,0.1,0.1,0.2,0.1c0.8,0,1.4-0.4,2-0.8c0.4-0.2,0.7-0.4,1.3-0.3c0.8,0.1,1.6,0,2.2-0.7
			c0.1-0.1,0.2-0.1,0.1-0.2c0-0.1-0.2-0.1-0.2-0.1c-0.5,0-0.9-0.1-1.4,0.1c-0.1,0-0.2,0-0.2,0c-0.1-0.1,0-0.1,0.1-0.2
			c0.6-0.6,1.1-1.3,1.6-2c0.1-0.1,0.2-0.2,0.4-0.1c0.9,0.1,1.8-0.4,2.2-1.2c0.1-0.1,0.2-0.3,0-0.4c-0.1-0.1-0.3-0.2-0.5-0.1
			c-0.3,0.2-0.7,0.3-1,0.5c-0.1,0.1-0.2,0.2-0.2,0.1c-0.1-0.1,0-0.2,0-0.3c0.2-0.4,0.4-0.8,0.6-1.3c0.1-0.4,0.3-0.7,0.4-1.1
			c0-0.1,0.1-0.2,0.2-0.2c0.4-0.1,0.8-0.4,1.1-0.7c0.4-0.4,0.6-0.8,0.8-1.3c0-0.1,0.1-0.3,0-0.4c-0.1-0.1-0.3,0-0.4,0
			c-0.2,0.1-0.4,0.2-0.6,0.5C30.8,18.5,30.6,18.8,30.3,19.1z"/>
		<path class="st0" d="M105.8,12.6c0.5-1.4,1-2.8,1.4-4.2c0.1-0.5,0.4-0.6,0.9-0.6c2,0,3.9,0,5.9,0c0.6,0,0.8,0.2,0.8,0.8
			c0,0.5,0,0.9,0,1.4c0,0.2,0,0.5-0.1,0.5c-1,0.2-0.6,1-0.6,1.6c0,1.7,0,3.4,0,5.2c0,0.3-0.1,0.7,0.4,0.8c0.4,0.1,0.3,0.5,0.3,0.8
			c0.1,1.9,0.1,1.9-1.8,1.9c-1.2,0-2.4,0-3.7,0c-0.6,0-0.8-0.2-0.8-0.8c0.1-0.8-0.4-1.7,0.7-2.2c0.1,0,0.1-0.3,0.1-0.4
			c0-1.4,0-2.9,0-4.4c-0.3,0.3-0.5,0.6-0.6,0.9c-0.7,2.1-1.4,4.2-2.1,6.4c-0.1,0.3-0.2,0.4-0.5,0.5c-1.7,0.3-2.1,0.1-2.6-1.6
			c-0.7-2.1-1.4-4.1-2.2-6.2c-0.3,0.2-0.2,0.4-0.2,0.6c0,1.2,0,2.4,0,3.6c0,0.2-0.1,0.5,0.2,0.6c1.3,0.6,0.5,1.7,0.7,2.5
			c0.1,0.3-0.3,0.3-0.6,0.3c-1.4,0-2.9,0-4.3,0c-0.1,0-0.3,0-0.4-0.1c-0.3-0.3-0.2-2.5,0.2-2.6c0.4-0.1,0.4-0.4,0.4-0.7c0-2,0-4,0-6
			c0-0.2,0-0.4-0.1-0.6c-0.2-0.2-0.6,0-0.6-0.5c0-0.7,0-1.4,0-2.1c0-0.3,0.3-0.3,0.5-0.3c2.2,0,4.4,0,6.6,0c0.4,0,0.5,0.2,0.6,0.5
			c0.5,1.4,1,2.9,1.4,4.3C105.7,12.6,105.7,12.6,105.8,12.6z"/>
		<path class="st0" d="M62.3,16.8c0.7,0.1,1.5-0.3,2.1,0.7c0.2,0.4,1,0.4,1.4,0c0.5-0.4,0.2-0.8-0.2-1c-0.8-0.4-1.7-0.7-2.5-1
			c-2.2-1-2.9-2.1-2.7-4.5c0.1-1.6,1.3-2.9,3-3.2c2.1-0.4,4.2-0.3,6.2,0.3c0.8,0.2,1.1,0.6,1.1,1.5c-0.1,2,0,2-2,2
			c-0.6,0-1.2,0.1-1.6-0.5c-0.3-0.4-0.9-0.3-1.3-0.1c-0.2,0.1-0.3,0.2-0.3,0.4c0,0.3,0.2,0.5,0.5,0.6c0.7,0.3,1.4,0.5,2.1,0.8
			c2.1,0.7,3.3,2.2,3.2,4.2c-0.1,2.3-1.2,3.3-3.2,3.8c-2.3,0.6-4.6,0.2-6.9-0.3c-0.5-0.1-0.8-0.4-0.7-0.9c0-0.2,0-0.5,0-0.7
			C60.4,16.8,60.4,16.8,62.3,16.8z"/>
		<path class="st0" d="M117.1,16.8c0.4,0,0.8,0,1.2,0c0.3,0,0.6,0.1,0.7,0.4c0.2,0.6,0.7,0.5,1.1,0.5c0.3,0,0.7,0,0.8-0.4
			c0.1-0.4-0.1-0.6-0.5-0.8c-1-0.5-2.1-0.7-3.1-1.3c-1.8-1-2.4-2.5-2-4.7c0.3-1.5,1.7-2.6,3.5-2.8c1.8-0.2,3.6-0.1,5.4,0.4
			c0.9,0.2,1.3,0.6,1.3,1.6c-0.1,1.9,0,1.9-2,1.9c-0.6,0-1.2,0.2-1.7-0.6c-0.2-0.4-1-0.4-1.4-0.1c-0.6,0.4-0.1,0.7,0.2,0.9
			c0.7,0.3,1.4,0.5,2.1,0.8c2,0.6,3.2,2,3.2,3.8c0.1,2.5-1.1,3.7-3.3,4.2c-2.3,0.5-4.5,0.2-6.7-0.4c-0.2,0-0.3-0.1-0.5-0.2
			c-0.3-0.2-0.4-2.9-0.2-3.2c0.1-0.1,0.3-0.1,0.5-0.1C116.3,16.8,116.7,16.8,117.1,16.8C117.1,16.8,117.1,16.8,117.1,16.8z"/>
		<path class="st0" d="M85,7.8c3.3,0,6.7,0,10,0c0.5,0,0.7,0.1,0.7,0.7c0,1.2,0,2.4,0,3.6c0,0.6-0.2,0.8-0.8,0.8c-0.7,0-1.5,0-2.2,0
			c-0.5,0-0.8-0.2-0.7-0.7c0-0.1,0-0.2,0-0.3c0-1.1-0.5-1.5-1.6-1.2c-0.2,0.1-0.4,0.2-0.3,0.4c0,0.7-0.1,1.4,0.1,2.1
			c0,0-0.1,0-0.1,0.1c0,0,0,0.1,0,0.1c0.4,0.5,0.9,0.2,1.4,0.3c0,0.5,0.1,1-0.1,1.5c-0.4-0.1-0.8-0.4-1.2,0.1c0,0-0.1,0.1-0.1,0.1
			c-0.1-0.1-0.2,0-0.2,0.1c0,0.1,0.1,0.1,0.2,0.1c0,0.2,0,0.3,0,0.5c-0.1,0-0.2,0-0.2,0.1c0,0.1,0,0.2,0.2,0.2c0,0.2,0,0.3,0,0.5
			c-0.3,0.4-0.4,0.8,0,1.2c0,0,0.1,0.1,0.1,0.1c0.5,0.4,1.3,0.4,1.7,0c0,0,0.1-0.1,0.1-0.1c0.5-0.4,0.3-0.8,0.1-1.2
			c0-0.2,0-0.3,0-0.5c0.3-0.1,0.2-0.4,0.2-0.7c1,0,1.9,0,2.9,0c0.4,0,0.6,0.1,0.6,0.5c0,1.4,0,2.8,0,4.2c0,0.4-0.1,0.6-0.5,0.6
			c-3.4,0-6.8,0-10.2,0c-0.1,0-0.2-0.1-0.3-0.1c0.1-0.4,0.4-0.9-0.1-1.3c0-0.1,0-0.3,0-0.4c0.4-0.1,0.1-0.6,0.4-0.7
			c0.7-0.2,0.7-0.8,0.7-1.3c0-1.3,0-2.6,0-3.9c0-0.3,0.2-0.6-0.2-0.8c0-0.3,0-0.7,0-1c0.3-0.1,0.2-0.3,0.1-0.5
			c-0.1-0.1-0.1-0.3-0.3,0c-0.2-0.1-0.4-0.1-0.6-0.2C85,9.6,84.6,8.6,85,7.8z"/>
		<path class="st0" d="M41.6,7.6c1.6,0.1,3,0.1,4.3,0.7c0.4,0.2,0.6,0.4,0.6,0.9c0.1,2.4,0.1,2.4-2.3,2.4c-0.5,0-0.9,0-1.2-0.5
			c-0.3-0.5-0.9-0.4-1.4-0.2c-0.2,0-0.3,0.2-0.3,0.4c0,0.3,0.2,0.5,0.5,0.6c0.9,0.4,1.9,0.7,2.8,1.1c2,0.9,2.8,2.4,2.5,4.6
			c-0.3,1.6-1.7,2.9-3.6,3.2c-2.1,0.3-4.2,0.1-6.2-0.4c-0.6-0.1-0.9-0.5-0.9-1.2c0-2.4,0-2.4,2.4-2.4c0.6,0,1.2-0.2,1.6,0.7
			c0.2,0.4,1,0.4,1.4,0.1c0.5-0.4,0.3-0.8-0.2-1c-0.9-0.4-1.8-0.7-2.7-1.1c-2.4-1-3.4-3.3-2.3-5.6c0.5-1.2,1.6-1.8,2.9-2
			C40.2,7.6,41,7.6,41.6,7.6z"/>
		<path class="st0" d="M50.7,7.8c0.8,0,1.6,0,2.4,0c0.3,0,0.6-0.1,0.7,0.3c0.2,0.7,0.4,1.7,0,2.2c-0.5,0.7-0.1,1.1,0,1.5
			c0.1,0.4,0.2,1,0.5,1c0.5,0,0.4-0.6,0.6-0.9c0.3-0.5,0.4-1,0-1.6c-0.3-0.5-0.1-1.4-0.1-2.1c0-0.4,0.3-0.4,0.6-0.4
			c1.3,0,2.6,0,3.9,0C59.8,7.8,60,8,60,8.4c0,0.5,0,0.9,0,1.4c0,0.4,0,0.7-0.5,0.8c-0.2,0-0.4,0.2-0.5,0.4c-0.9,1.6-1.8,3.2-2.7,4.8
			c-0.3,0.6-0.2,1.2-0.2,1.8c0,0.1,0,0.1,0.1,0.2c1.2,0.5,0.5,1.6,0.7,2.4c0.1,0.4-0.2,0.6-0.6,0.6c-1.7,0-3.4,0-5.2,0
			c-0.1,0-0.3,0-0.4-0.1c-0.3-0.2-0.2-2.4,0-2.6c0.7-0.6,0.9-1.3,0.5-2.1c-0.9-1.7-1.9-3.3-2.9-5c0-0.1-0.1-0.1-0.1-0.1
			c-1.3-0.4-0.7-1.5-0.8-2.3c-0.1-0.5,0.2-0.7,0.7-0.7C49,7.8,49.8,7.8,50.7,7.8C50.7,7.8,50.7,7.8,50.7,7.8z"/>
		<path class="st0" d="M77.7,7.8c1.8,0,3.6,0,5.4,0c0.6,0,0.9,0.2,0.9,0.8c0,0.8,0,1.6,0,2.4c0,0.6-0.3,0.8-0.8,0.8
			c-0.4,0-0.9,0-1.3,0c-0.5,0-0.8-0.2-0.8-0.7c0-0.4-0.1-0.6-0.6-0.6c-0.4,0-0.5,0.3-0.5,0.6c0,2,0,4.1,0,6.1c0,0.3,0.1,0.6,0.4,0.6
			c0.7,0,0.8,0.4,0.8,1c0,2.1,0.3,1.8-1.8,1.8c-1.4,0-2.9,0-4.3,0c-0.8,0-1-0.3-0.9-1c0-0.3,0-0.6,0-1c0-0.5,0-0.9,0.7-0.9
			c0.4,0,0.4-0.3,0.4-0.5c0-2.1,0-4.1,0-6.2c0-0.3,0-0.6-0.5-0.6c-0.4,0-0.6,0.2-0.5,0.6c0.1,0.6-0.3,0.7-0.8,0.7
			c-2.5,0-2,0.2-2-1.9c0-2.1,0-2.1,2.1-2.1C75,7.8,76.4,7.8,77.7,7.8C77.7,7.8,77.7,7.8,77.7,7.8z"/>
		<path class="st1" d="M66,27.3c0,0.4,0,0.9,0,1.3c0,0.2,0,0.4-0.3,0.5c-0.2,0-0.4-0.1-0.4-0.4c0-0.8,0-1.7,0-2.5
			c0-0.5,0.7-0.6,1-0.2c0.3,0.3,0.5,0.7,0.7,1.1c0.1,0.2,0.2,0.5,0.5,0.4c0.2-0.1,0.2-0.3,0.2-0.5c0,0,0-0.1,0-0.1
			c0.1-0.4-0.2-1,0.2-1c0.6,0,0.4,0.7,0.4,1.1c0,0.5,0,1,0,1.5c0,0.3,0,0.6-0.4,0.7c-0.3,0.1-0.6,0-0.8-0.3
			C66.9,28.2,66.6,27.7,66,27.3z"/>
		<path class="st1" d="M102.3,27.7c0-0.5,0.1-1,0.1-1.4c0-0.2,0.1-0.4,0.3-0.3c0.2,0,0.2,0.2,0.2,0.3c0.2,0.8,0,1.7,0,2.5
			c0,0.2-0.2,0.3-0.4,0.3c-0.4,0-0.6-0.2-0.8-0.5c-0.3-0.5-0.5-1-1.1-1.6c0,0.7,0,1.1,0,1.6c0,0.2,0,0.4-0.3,0.5
			c-0.2,0-0.4-0.2-0.4-0.4c0-0.8-0.1-1.6,0-2.4c0-0.5,0.6-0.6,1-0.2C101.5,26.5,101.6,27.3,102.3,27.7z"/>
		<path class="st1" d="M107.5,27.7c0.2-0.5,0.1-1,0.1-1.4c0-0.2,0.1-0.5,0.4-0.5c0.3,0,0.3,0.3,0.3,0.5c0,0.7,0,1.5,0,2.2
			c0,0.3,0.1,0.6-0.3,0.6c-0.3,0.1-0.6,0-0.8-0.3c-0.3-0.6-0.6-1.2-1.2-1.7c-0.2,0.6-0.1,1.1-0.1,1.6c0,0.2,0,0.4-0.2,0.4
			c-0.3,0-0.4-0.2-0.3-0.4c0.1-0.7-0.3-1.4,0-2.2c0.1-0.2,0-0.5,0.3-0.6c0.4-0.1,0.6,0.1,0.8,0.4C106.8,26.7,106.9,27.2,107.5,27.7z
			"/>
		<path class="st1" d="M56,27.5c0-0.2,0-0.2,0-0.3c0-1.3,0.2-1.5,1.1-1.4c1,0,1.7,0.8,1.7,1.7c-0.1,1.2-1.2,2-2.3,1.6
			c-0.3-0.1-0.3-0.3-0.4-0.5C56,28.2,56,27.8,56,27.5z M58.1,27.5c0-0.5-0.2-1-0.8-1.1c-0.6,0-0.6,0.5-0.5,0.9
			c0,0.4-0.2,1.1,0.5,1.1C57.9,28.4,58,27.9,58.1,27.5z"/>
		<path class="st1" d="M52,28.7c0,0.2,0,0.3-0.2,0.3c-0.2,0-0.4,0-0.5-0.2c-0.4-0.7-0.9-0.6-1.4,0c-0.2,0.2-0.4,0.3-0.7,0.2
			c-0.3-0.2-0.1-0.4,0-0.6c0.1-0.8,0.5-1.5,0.8-2.2c0.2-0.4,0.5-0.6,1-0.2C51.1,26.1,52,28.5,52,28.7z M50.9,27.2
			c0-0.2-0.1-0.4-0.4-0.4c-0.3,0-0.3,0.2-0.3,0.4c0,0.2,0.1,0.4,0.4,0.4C50.8,27.6,50.9,27.5,50.9,27.2z"/>
		<path class="st1" d="M92.2,27.7c0-0.2,0.1-0.6-0.1-1c-0.2-0.6,0.1-0.8,0.6-0.9c1.4-0.1,1.9,0.5,1.4,1.7c-0.1,0.3,0,0.5,0.2,0.8
			c0.1,0.2,0.4,0.5,0.1,0.7c-0.3,0.2-0.5-0.2-0.7-0.4c-0.1-0.1-0.2-0.2-0.3-0.4C93.2,28,93,28,92.9,28.3c-0.1,0.3,0,0.8-0.4,0.7
			c-0.5-0.1-0.2-0.6-0.3-0.9C92.1,28.1,92.2,27.9,92.2,27.7z M93.3,27.2c0.3,0,0.3-0.2,0.3-0.4c0-0.2-0.2-0.4-0.4-0.3
			c-0.2,0-0.3,0.2-0.3,0.4C92.9,27,93,27.2,93.3,27.2z"/>
		<path class="st1" d="M110.7,29.1c-1.3,0-1.8-0.6-1.7-1.9c0.1-1,0.8-1.6,1.9-1.4c0.2,0,0.5,0,0.5,0.3c0,0.3-0.3,0.2-0.5,0.2
			c-0.9,0.1-1.3,0.7-1.1,1.6c0.1,0.3,0.2,0.5,0.5,0.6c0.2,0.1,0.4,0.1,0.5-0.1c0.2-0.3-0.1-0.5-0.2-0.6c-0.2-0.2-0.1-0.4,0.1-0.5
			c0.3-0.1,0.8-0.1,0.9,0.3c0.2,0.4,0.1,0.9,0,1.3C111.4,29.2,111,29.1,110.7,29.1z"/>
		<path class="st1" d="M52.6,26.8c0.1-0.2-0.3-0.9,0.3-0.9c0.5,0,0.2,0.7,0.2,1.1c0,0.1,0,0.2,0,0.3c0.1,0.5,0.1,1.2,0.8,1.2
			c0.8,0,0.6-0.7,0.7-1.2c0-0.2,0-0.5,0-0.7c0-0.3-0.1-0.7,0.3-0.7c0.3,0,0.4,0.4,0.4,0.7c0,0.6-0.1,1.2-0.2,1.7
			c-0.1,0.7-0.6,0.8-1.2,0.9c-0.6,0-1.1-0.1-1.3-0.8C52.5,28,52.5,27.5,52.6,26.8z"/>
		<path class="st1" d="M71.4,26.2c-0.3,0.2-0.6,0.1-0.9,0.2c-0.5,0.1-0.7,0.4-0.8,0.8c-0.1,0.4,0,0.8,0.3,1.1c0.2,0.2,0.5,0.2,0.7,0
			c0.2-0.2,0.1-0.4-0.1-0.5c-0.2-0.3-0.2-0.5,0.1-0.6c0.3-0.1,0.7-0.1,0.7,0.4c0,0.4,0.2,1-0.2,1.3c-0.5,0.3-1.2,0.3-1.7,0
			c-0.7-0.3-0.8-1.6-0.3-2.4c0.4-0.7,1.1-1,1.9-0.6C71.3,26,71.3,26.1,71.4,26.2z"/>
		<path class="st1" d="M96.5,28.4c-0.4,0-0.7-0.1-0.8,0.3c-0.1,0.1-0.2,0.4-0.5,0.2c-0.2-0.1-0.2-0.4-0.1-0.5
			c0.3-0.8,0.6-1.5,0.9-2.3c0.1-0.2,0.3-0.4,0.6-0.3c0.3,0,0.5,0.1,0.6,0.4c0.3,0.7,0.5,1.5,0.7,2.2c0.1,0.2,0.1,0.4-0.1,0.4
			c-0.2,0.1-0.4,0-0.5-0.1C97,28.4,96.7,28.4,96.5,28.4z M96.7,27.3c0-0.2,0-0.4-0.2-0.4c-0.3,0-0.4,0.2-0.4,0.5
			c0,0.2,0.1,0.3,0.3,0.3C96.7,27.7,96.8,27.5,96.7,27.3z"/>
		<path class="st1" d="M89.1,26.1c0.7-0.5,1.5-0.4,2.3-0.2c0.2,0,0.4,0.3,0,0.4c-0.8,0.1-0.6,0.7-0.6,1.1c0,0.4,0,0.8,0,1.2
			c0,0.3-0.1,0.5-0.4,0.5c-0.3,0-0.3-0.3-0.3-0.5c0-0.3,0-0.7,0-1C90.1,26.8,90,26.3,89.1,26.1z"/>
		<path class="st1" d="M62,25.8c0.3,0,0.5,0,0.8,0c0.1,0,0.3,0.1,0.3,0.3c0,0.2-0.1,0.3-0.2,0.3c-0.6,0.1-0.5,0.5-0.5,1
			c0,0.5,0,0.9-0.1,1.4c0,0.2-0.1,0.3-0.3,0.3c-0.2,0-0.3-0.2-0.3-0.3c0-0.5,0-0.9,0-1.4c0-0.5,0-1-0.6-1c-0.1,0-0.2-0.1-0.2-0.2
			c0-0.2,0.2-0.3,0.3-0.3C61.4,25.8,61.7,25.8,62,25.8C62,25.8,62,25.8,62,25.8z"/>
		<path class="st1" d="M59.5,27.3c0-0.3,0-0.7,0-1c0-0.2,0-0.4,0.3-0.5c0.3,0,0.5,0.1,0.5,0.4c0,0.8,0,1.7,0,2.5
			c0,0.2-0.1,0.3-0.3,0.3c-0.3,0-0.4-0.1-0.4-0.4C59.5,28.2,59.6,27.8,59.5,27.3C59.5,27.3,59.5,27.3,59.5,27.3z"/>
		<path class="st1" d="M99.2,27.5c0,0.4,0,0.8,0,1.1c0,0.2-0.1,0.4-0.4,0.4c-0.2,0-0.4-0.1-0.4-0.3c0-0.8,0-1.7,0-2.5
			c0-0.2,0.1-0.4,0.4-0.4c0.2,0,0.3,0.2,0.4,0.4C99.2,26.7,99.2,27.1,99.2,27.5C99.2,27.5,99.2,27.5,99.2,27.5z"/>
		<path class="st1" d="M85.4,12.2c0.4,0.2,0.2,0.5,0.2,0.8c0,1.3,0,2.6,0,3.9c0,0.6,0.1,1.1-0.7,1.3c-0.3,0.1,0,0.6-0.4,0.7
			c-0.1-0.5-0.2-0.9,0.5-1.1c0.4-0.1,0.3-0.5,0.3-0.8C85.4,15.4,85.2,13.8,85.4,12.2z"/>
		<path class="st1" d="M104.4,27.5c0,0.4,0,0.8,0,1.1c0,0.2,0,0.4-0.3,0.4c-0.3,0-0.4-0.1-0.4-0.4c0-0.8,0-1.6,0-2.4
			c0-0.2,0.1-0.4,0.4-0.4c0.3,0,0.3,0.2,0.3,0.4C104.5,26.7,104.5,27.1,104.4,27.5C104.5,27.5,104.5,27.5,104.4,27.5z"/>
		<path class="st1" d="M64.4,27.4c0,0.4,0,0.8,0,1.2c0,0.2-0.1,0.3-0.3,0.3c-0.2,0-0.2-0.2-0.2-0.3c0-0.8,0-1.6,0-2.4
			c0-0.2,0.1-0.3,0.2-0.3c0.2,0,0.3,0.1,0.3,0.3C64.4,26.6,64.4,27,64.4,27.4C64.4,27.4,64.4,27.4,64.4,27.4z"/>
		<path class="st1" d="M85,7.8c-0.4,0.8,0,1.8-0.3,2.6c-0.4-0.8-0.2-1.6-0.1-2.4C84.6,7.8,84.8,7.7,85,7.8z"/>
		<path class="st1" d="M91.9,17.9c-0.4,0.4-1.2,0.4-1.7,0C90.8,17.9,91.3,17.9,91.9,17.9z"/>
		<path class="st1" d="M91.5,13.5c-0.5-0.1-1,0.2-1.4-0.3c0,0,0-0.1,0-0.1c0,0,0.1-0.1,0.1-0.1C90.6,13.3,91.3,12.7,91.5,13.5z"/>
		<path class="st1" d="M92.1,16.6c0.3,0.4,0.4,0.8-0.1,1.2C92,17.4,91.9,17,92.1,16.6z"/>
		<path class="st1" d="M90.1,17.8c-0.5-0.4-0.4-0.8,0-1.2C90.2,17,90.1,17.4,90.1,17.8z"/>
		<path class="st1" d="M84.6,19.4c0.4,0.4,0.2,0.8,0.1,1.3C84.4,20.2,84.5,19.8,84.6,19.4z"/>
		<path class="st1" d="M90.2,15.1c0.3-0.5,0.8-0.3,1.2-0.1C91,15.3,90.6,15.1,90.2,15.1z"/>
		<path class="st1" d="M85.3,10.6c0.1-0.3,0.2-0.1,0.3,0c0.1,0.2,0.3,0.4-0.1,0.5C85.4,11,85.3,10.8,85.3,10.6z"/>
		<path class="st1" d="M92.3,15.5c0,0.2,0.1,0.5-0.2,0.7C91.9,15.8,91.9,15.6,92.3,15.5z"/>
		<path class="st1" d="M90.1,16.1c-0.1,0-0.2,0-0.2-0.2c0,0,0.1-0.1,0.2-0.1C90.1,15.9,90.1,16,90.1,16.1
			C90.1,16.1,90.1,16.1,90.1,16.1z"/>
		<path class="st1" d="M90.1,15.4c-0.1,0.1-0.2,0-0.2-0.1c0-0.1,0.1-0.2,0.2-0.1C90.1,15.3,90.1,15.3,90.1,15.4z"/>
		<path class="st2" d="M58.1,27.5c-0.1,0.5-0.2,1-0.8,0.9c-0.8-0.1-0.5-0.7-0.5-1.1c0-0.4-0.1-0.9,0.5-0.9
			C57.9,26.4,58,26.9,58.1,27.5z"/>
		<path class="st2" d="M50.9,27.2c0,0.2,0,0.4-0.3,0.4c-0.3,0-0.4-0.1-0.4-0.4c0-0.2,0-0.4,0.3-0.4C50.8,26.9,50.8,27.1,50.9,27.2z"
			/>
		<path class="st2" d="M93.3,27.2c-0.2,0-0.4-0.1-0.4-0.4c0-0.2,0.1-0.4,0.3-0.4c0.2,0,0.4,0.1,0.4,0.3C93.6,27,93.5,27.1,93.3,27.2
			z"/>
		<path class="st2" d="M96.7,27.3c0,0.2-0.1,0.4-0.3,0.4c-0.2,0-0.3-0.1-0.3-0.3c0-0.3,0.2-0.5,0.4-0.5
			C96.7,26.9,96.7,27.1,96.7,27.3z"/>
		<path class="st0" d="M10.1,16.3c0.3,0.5,0.4,1,0.4,1.5c0,0.3-0.3,0.1-0.5,0.2c-0.2,0-0.2-0.2-0.2-0.3C9.9,17.2,10,16.8,10.1,16.3z
			"/>
	</g>
</g>
</svg>
