<?xml version="1.0" encoding="utf-8"?>
<!-- Generator: Adobe Illustrator 24.2.3, SVG Export Plug-In . SVG Version: 6.00 Build 0)  -->
<svg version="1.1" id="Layer_1" xmlns="http://www.w3.org/2000/svg" xmlns:xlink="http://www.w3.org/1999/xlink" x="0px" y="0px"
	 viewBox="0 0 253 253" style="enable-background:new 0 0 253 253;" xml:space="preserve">
<style type="text/css">
	.st0{fill:#0A2450;}
</style>
<g>
	<path class="st0" d="M29.5,110.2c-0.5-1.6-0.2-3.2-0.2-4.8c0-31.5,0-63.1,0-94.6c0-3.1,0-3.1,3-3.1c63.2,0,126.4,0,189.5-0.1
		c2,0,2.4,0.6,2.4,2.5c-0.1,48.2,0,96.5-0.1,144.7c0,7.7-1.9,15.2-4.3,22.5c-4.8,14.8-12.6,27.8-23.5,38.8
		c-9.2,9.3-19.8,16.8-32,21.8c-14.9,6-30.3,8.4-46.4,7c-18.3-1.5-34.7-7.9-49.4-18.7c-15-11.2-26.1-25.6-32.8-43.1
		c-4-10.3-6.4-20.9-6.3-32c0.1-10.2-0.1-20.3,0-30.5c0-2.2-1.1-4.3,0-6.5c0.8,0,0.7,0.6,0.9,1c1.6,2.7,2.8,5.9,5.7,7.4
		c2.2,1.2,4,3.1,6.6,3.5c0.7,0.1,1.1,1,1.3,1.8c1.3,4.7,3.5,9,5.5,13.4c0.3,0.6,1.2,1.2,0.6,2.3c-0.6-0.3-1.2-0.7-1.8-1
		c-2-1.3-4.1-2.3-6.4-2.9c-1-0.3-2-0.4-2.8,0.4c-0.9,0.9-0.3,1.8,0.1,2.7c2.5,5.6,7.5,8.5,14,8c1.4-0.1,2.4,0.2,3.2,1.4
		c2.8,4.1,5.9,8.1,9.5,11.6c0.5,0.5,1.3,0.9,1.2,1.9c-0.8,0.3-1.5,0.1-2.2-0.1c-2.7-0.9-5.5-0.8-8.3-0.7c-0.7,0-1.5-0.1-1.8,0.7
		c-0.2,0.8,0.3,1.2,0.8,1.7c4.1,4,9.2,5.2,14.5,4.1c3.1-0.6,5.3,0.2,7.5,1.8c3.6,2.5,7.6,4,11.8,5.2c0.8,0.2,1.9,0.4,2.8-0.3
		c-1.8-0.7-3.4-1.4-5.1-1.9c-1.8-0.5-2.5-1.6-2.9-3.4c-1-4.3-3.5-7.9-6.7-10.9c-0.4-0.4-0.9-1-1.6-0.6c-0.8,0.4-0.5,1.1-0.4,1.8
		c0.5,3.1,1.9,6,4,9c-4.3-1.5-6.8-4.4-9.8-6.8c-2.2-1.8-3.4-3.7-3-6.6c0.2-1.8-0.5-3.6-1-5.3c-0.9-2.9-1.6-5.9-4.3-7.9
		c-0.5-0.3-0.9-1-1.6-0.6c-0.6,0.4-0.7,1-0.6,1.8c0.3,2.9,1,5.8,1.8,9.2c-4.7-5.6-8.2-11.3-11-17.4c-0.3-0.7-0.4-1.5,0-2.2
		c1.6-2.8,2.2-5.9,2.4-9c0.2-3.4-0.1-6.8-1.2-10.1c-0.2-0.5-0.3-1.1-0.9-1.1c-0.7-0.1-0.9,0.5-1.1,1c-1.7,2.7-2.8,5.6-2.7,8.8
		c0,1.2,0,2.3,0,3.5c-2.6-4.9-3.7-10.1-4.5-15.4c-0.1-1,0-2.1,0.9-2.7c5.3-4,7.6-9.7,8.9-15.9c0.1-0.7,0.3-1.3-0.5-1.8
		c-0.7-0.4-1.2,0-1.6,0.5c-1.8,2-3.6,3.9-4.9,6.2c-0.7,1.1-1.2,2.4-2.5,3.4c-0.3-1.5-0.3-2.8,0-4c0.8-3.4,1.8-6.7,2.5-10.1
		c0.8-3.7,2.8-5.9,6.5-6.8c5.4-1.3,8.9-5.2,11.9-9.6c0.3-0.4,0.4-0.8,0.2-1.3c-0.3-0.6-0.9-0.5-1.4-0.3c-1.2,0.5-2.4,0.9-3.6,1.5
		c-2.4,1.2-4.9,2.5-7.8,4c2.5-5.4,5.7-9.6,8.9-13.9c2.1-2.9,4.7-5,8.1-6.3c4.4-1.8,7.2-5.2,9-9.6c0.8-2,0.2-2.6-1.9-2.5
		c-3.9,0.3-7,2.2-8.7,5.5c-3,5.8-7.7,10.1-11.3,15.4c-0.7,1-1.4,2-2.3,3.1c-0.2-1.5-0.1-2.6,0.1-3.7c0.9-4.5,1-9.1,0.2-13.6
		c-0.2-1.1,0.2-3.1-1.5-3.1c-1.5,0-2,1.7-2.5,2.9c-3,6.8-3.1,13.5,0.5,20.2c0.5,0.9,0.8,1.9,0.2,2.8c-2.5,4.1-4.2,8.6-5.8,13.1
		c-0.2,0.5-0.4,1.1-1.1,1c-0.5-0.1-0.4-0.8-0.4-1.2c-0.2-2.4-0.4-4.8-0.7-7.2c-0.2-1.2,0-3-1.7-3.1c-1.6-0.1-2.5,1.5-3.1,2.9
		c-0.1,0.1-0.1,0.3-0.1,0.4c-1.9,5.9-0.4,11.3,3.2,16.1c0.7,1,1.4,1.8,1.1,3.1c-0.7,2.9-0.5,5.9-0.5,8.9c-0.1,3.6,0,7.2,0.7,10.8
		c-1.1-0.9-1.8-1.9-2.7-2.8C35.8,113.8,33.9,110.2,29.5,110.2z M162,107.6c1.1,0.1,1.4,0.8,1.8,1.3c4.5,6.9,9,13.7,13.4,20.6
		c0.8,1.3,1.6,1.8,3.1,1.8c3.6-0.1,7.2-0.2,10.7,0c2.2,0.1,3-0.4,2.9-2.8c-0.2-9.7-0.1-19.3-0.1-29c0-0.8-0.4-2.1,1-2.1
		c1.8,0.1,1.7-1,1.7-2.2c0-1.8,0-3.7,0-5.5c0-1.1-0.4-1.5-1.5-1.5c-5,0-10.1,0-15.1,0c-1.1,0-1.7,0.3-1.6,1.6c0.1,2,0,4,0,5.9
		c0,0.6-0.1,1.5,0.7,1.5c2.5,0,2,1.7,2,3.2c0,2.5,0,5,0,7.5c0,0.5,0.3,1.2-0.6,1.5c-4.3-6.5-8.6-13-12.9-19.6
		c-0.8-1.2-1.6-1.6-3-1.6c-3.8,0.1-7.6,0-11.4,0c-7.4,0-7.4,0-6.8,7.4c0.1,1,0.3,1.7,1.4,1.6c1.1,0,1.4,0.6,1.4,1.6
		c0,7.2,0,14.5,0,21.7c0,0.6,0.1,1.5-0.7,1.5c-2.5-0.1-2,1.6-2,3.1c0,1.4,0.1,2.7,0,4.1c-0.1,1.5,0.5,2,2,2c4.9,0,9.8,0,14.6,0
		c1.2,0,1.7-0.4,1.6-1.6c-0.1-1.9-0.1-3.8,0-5.7c0-1.2-0.1-1.9-1.6-1.9c-0.7,0-1.1-0.4-1.1-1.1C162,116.5,162,112.1,162,107.6z
		 M90.5,131.3c3,0,6.1,0,9.1,0c1.4,0,1.9-0.4,1.9-1.9c-0.1-1.7,0-3.4,0-5c0-1.2,0-2.3-1.7-2.3c-0.8,0-0.9-0.6-1-1.3
		c-2.8-10.2-5.6-20.3-8.3-30.5c-0.4-1.5-1.1-2.1-2.7-2.1c-4,0.1-7.9,0-11.9,0c-1.9,0-4-0.5-5.6,0.2c-1.8,0.8-1.3,3.3-2,5
		c-0.2,0.3-0.3,0.7-0.4,1.1c-2.2,8.3-4.4,16.6-6.7,24.8c-0.2,0.9-0.3,2.4-1.2,2.5c-2.2,0.3-1.7,1.7-1.8,3c0,1.4,0,2.9-0.1,4.3
		c-0.1,1.5,0.5,2,2,2c3.4-0.1,6.7,0,10.1,0c7.5,0,7.5,0,6.8-7.6c0-0.1,0-0.2,0-0.2c0-0.8-0.4-1.4-1.2-1.3c-1.5,0.2-1.9-0.5-1.6-1.9
		c0.2-1.3,0.2-2.7,2.1-2.6c1.6,0,3.2-0.1,4.8,0c2.2,0.2,1.4,2.2,1.8,3.4c0.4,1.1-0.9,1-1.6,1c-1.2,0-1.6,0.5-1.5,1.7
		c0.1,1.9,0.1,3.8,0,5.7c-0.1,1.3,0.4,1.8,1.7,1.7C84.4,131.2,87.4,131.3,90.5,131.3z M113.4,88.3c-2.7,0-5.5,0.1-8.2,0
		c-1.9-0.1-2.9,0.4-2.6,2.5c0.2,1.2,0,2.4,0,3.7c0,1.4-0.3,3,1.9,3.1c0.6,0,0.6,0.8,0.8,1.3c3,10.1,6,20.2,8.9,30.3
		c0.5,1.7,1,2.2,2.7,2.2c4.6-0.1,9.3-0.1,13.9,0c1.4,0,2.1-0.5,2.5-1.8c2.8-9.7,5.7-19.4,8.5-29c0.4-1.4,0.3-3.1,2.5-3.3
		c0.7-0.1,0.6-1,0.6-1.6c0-1.9,0-3.8,0-5.7c0-1.1-0.3-1.7-1.6-1.7c-5.1,0-10.2,0-15.3,0c-1.1,0-1.7,0.4-1.6,1.6c0,1.9,0,3.8,0,5.7
		c0,0.9,0.2,1.7,1.3,1.7c1.8,0,1.4,1.1,1.2,2.2c-0.6,3.1-1.2,6.1-1.9,9.1c-0.4,1.8-0.8,3.6-1.2,5.3c-0.1,0.3-0.4,0.7-0.7,0.8
		c-0.5,0.1-0.5-0.4-0.6-0.8c-1-5.1-2-10.1-3-15.2c-0.2-0.8-0.1-1.4,0.8-1.4c1.7,0,1.7-1.1,1.7-2.3c0-1.7-0.1-3.4,0-5
		c0.1-1.4-0.5-1.9-1.9-1.8C119.2,88.4,116.3,88.3,113.4,88.3z M209,119.7c-0.6-0.7-0.3-1.3-0.2-1.8c1.1-5.8,0.8-11.7,0.3-17.5
		c-0.1-1.5,0-2.6,1-3.9c3.8-4.9,5.2-10.4,2.9-16.5c-0.5-1.4-1.5-3.1-3.2-2.8c-1.5,0.2-1.4,2.1-1.5,3.5c-0.3,3.1-0.7,6.2-1.2,10
		c-0.5-1.4-0.7-2.1-1-2.8c-1.8-4.4-3.5-8.8-5.8-13c-0.4-0.8-0.7-1.7-0.1-2.6c3.2-4.6,3.1-9.8,2.7-15c-0.2-2.9-1.5-5.4-3-7.8
		c-0.4-0.6-1-1-1.7-0.9c-0.6,0.1-0.6,0.5-0.8,1c-1.1,4.1-1,8.2-0.7,12.4c0.2,2.3,1,4.5,0.2,7.4c-4-6.5-9.2-11.5-12.7-17.8
		c-2.1-3.8-5.1-6.7-10-6.3c-1.3,0.1-1.7,0.4-1.2,1.8c1.7,4.8,4.7,8.3,9.5,10.2c3.2,1.3,5.8,3.1,7.7,6.1c1,1.6,2.4,3,3.4,4.6
		c1.9,3,4,5.8,5.5,9.2c-1.1,0.1-1.8-0.5-2.5-0.9c-2.6-1.7-5.3-2.9-8.2-4c-0.6-0.3-1.4-0.6-1.9,0.1c-0.4,0.5-0.1,1.1,0.3,1.7
		c3.6,4.8,7.8,8.7,13.9,10c1.1,0.2,2.3,0.4,2.7,1.7c1.7,5,3.4,10.1,3.9,15.4c0.1,1,0.5,2.2-0.5,3.3c-2-3.5-4.2-6.7-7-9.5
		c-0.5-0.4-0.9-1.2-1.7-0.7c-0.6,0.4-0.6,1-0.5,1.7c1.3,6,3.4,11.5,8.4,15.5c1,0.8,1.3,1.6,1.2,2.7c-0.3,3.8-1.2,7.5-2.4,11.1
		c-0.5,1.6-0.8,3.2-2.2,5.2c0-1.7,0-2.8,0-3.8c-0.1-3.2-1-6.3-2.7-9.1c-0.3-0.5-0.5-1-1.2-0.9c-0.5,0.1-0.7,0.5-0.8,1
		c-1.7,6.2-2,12.3,0.7,18.3c0.8,1.8,0.7,3.4-0.2,4.9c-1.8,3.2-3.8,6.4-5.8,9.5c-1.2,1.8-2.6,3.5-3.9,5.2c0.1-2.2,0.7-4.1,0.8-6.1
		c0.1-1.2,1-3.2-0.7-3.6c-1.7-0.4-2.5,1.7-3.6,2.8c0,0,0,0.1-0.1,0.2c-1.6,4.1-3.2,8.2-2.9,12.8c0,0.7,0,1.3-0.5,1.9
		c-2.7,3.1-6,5.6-9.4,7.9c-0.3,0.2-0.8,0.3-1,0.2c-0.6-0.3-0.2-0.8-0.1-1.2c0.6-2.1,1.9-4,2.3-6.2c0.1-0.9,0.7-1.9-0.3-2.5
		c-0.9-0.5-1.7,0.4-2.1,1c-2.8,3.2-5.6,6.4-6.3,10.9c-0.2,1.5-0.9,2.5-2.5,2.9c-1.8,0.5-3.5,1.3-5.3,2c0.3,0.5,0.7,0.4,1.1,0.4
		c5,0.1,8.9-2.6,12.9-4.9c2.6-1.5,4.8-2.9,8.3-2.2c5.2,0.9,10.5-0.2,14.4-4.4c0.4-0.4,1.1-0.7,0.7-1.5c-0.3-0.6-1-0.7-1.6-0.7
		c-3,0.2-6.1-0.4-9,0.8c-0.4,0.2-1,0.3-1.3-0.1c-0.4-0.5,0.1-0.8,0.4-1.2c3.9-3.8,7.3-8.2,10.4-12.7c0.6-0.9,1.3-1.1,2.3-1
		c6,0.9,11.9-2.4,14.4-8c0.4-0.9,1.2-1.8,0.2-2.7c-0.9-0.8-2.2-1.1-3.2-0.6c-2.1,1.1-4.5,1.8-6.3,3.5c-0.5,0.4-1,1-1.6,0.5
		c-0.7-0.5-0.2-1.2,0.1-1.8c1.5-2.6,2.7-5.4,3.8-8.2c0.9-2.3,1.8-4.6,2.9-6.8c0.3-0.6,0.6-1,1.3-1.2c2.8-0.8,5.2-2.4,7.3-4.4
		c2.4-2.3,4.1-5.1,5.1-8.2c0.3-0.8,0.5-1.9-0.2-2.6c-0.8-0.7-1.7-0.1-2.5,0.3c-1.5,0.7-2.7,1.6-3.7,2.9
		C212.3,115.8,210.7,117.7,209,119.7z"/>
	<path class="st0" d="M78,101.5c1.6,3,2.4,6.2,2.5,9.4c0,2.1-2.1,0.9-3.3,1c-1.5,0.2-1.2-1-1.1-1.9C76.7,107.2,77.4,104.3,78,101.5z
		"/>
</g>
</svg>
